:SAMPLES-PER-SECOND 30
:FULLY-SPECIFIED
:DEGREES
321
root  35.07640869 36.51058467 -14.81628418 9.256440163 2.361546993 3.149018049
lowerback  -7.991089821 0.340206027 1.717970252
upperback  -3.935709953 0.01670500077 -2.440860033
thorax  0.414086014 -0.182408005 -3.487339973
lowerneck  -16.81889915 2.185839891 2.043649912
upperneck  16.15119934 1.593960047 3.511590004
head  7.751639843 1.161339998 1.000659943
lclavicle  0 -4.497500157e-015 -2.743230041e-014
lhumerus  -43.3844986 25.06430054 71.13619995
lradius  -0.06755774468 -6.507048965e-006 28.32570076
lwrist  4.824992743e-007 -3.790274832e-007 -29.13570023
lhand  -4.400698468e-031 -36.63999939 -10.66769981
lfingers  90 7.125020027 -90
lthumb  94.69273173 -25.51276661 100.7903099
rclavicle  0 -4.497500157e-015 -2.743230041e-014
rhumerus  -48.41400146 -26.25869942 -64.29039764
rradius  -5.16745672e-007 2.214343908e-008 56.79589844
rwrist  1.129822067e-006 0.001802438172 -159.6100006
rhand  -1.775147496e-031 5.956779957 -6.385369778
rfingers  -90 -7.125020027 -90
rthumb  -84.09383662 -9.612356139 -58.2208665
rfemur  -12.14018059 14.29673481 13.77985477
rtibia  -1.103617907 1.054855466 21.13632965
rfoot  -0.7232074142 -18.28300667 -40.38505936
rtoes  3.955532758 19.62066234 -101.6358374
lfemur  -10.04221439 -19.0507431 -18.67671394
ltibia  1.760225654 0.8553952575 15.84668446
lfoot  0.5298662186 -27.73841286 34.32009125
ltoes  -8.567724695 -18.14020283 -115.8224309
322
root  35.07525226 36.50929609 -14.82064104 9.254567146 2.304718971 3.163792133
lowerback  -8.000729561 0.348380059 1.72092998
upperback  -3.94175005 0.0268577002 -2.419399977
thorax  0.4139580131 -0.1773180068 -3.465909958
lowerneck  -16.84700012 2.16824007 2.0176301
upperneck  16.16480064 1.578320026 3.499830008
head  7.760900021 1.151859999 0.9997950792
lclavicle  0 -4.497500157e-015 -2.743230041e-014
lhumerus  -43.33509827 25.0265007 71.1867981
lradius  -0.06317771226 -6.507048965e-006 28.29979897
lwrist  4.824992743e-007 -3.790274832e-007 -29.14909935
lhand  -4.400692802e-031 -36.63990021 -10.62829971
lfingers  90 7.125020027 -90
lthumb  94.68450557 -25.47417343 100.7866252
rclavicle  0 -4.497500157e-015 -2.743230041e-014
rhumerus  -48.52299881 -26.8783989 -63.62139893
rradius  -5.16745672e-007 2.214343908e-008 54.87599945
rwrist  1.129822067e-006 0.001802438172 -158.7899933
rhand  -1.775183446e-031 5.967889786 -6.694749832
rfingers  -90 -7.125020027 -90
rthumb  -84.25611783 -9.350025721 -58.23719776
rfemur  -12.17637157 14.32235146 13.76199055
rtibia  -1.120312095 1.044071317 21.18168259
rfoot  -0.7352848649 -18.29616356 -40.36223984
rtoes  3.972459496 19.61737179 -101.68625
lfemur  -10.05175018 -19.00345612 -18.6971302
ltibia  1.754232049 0.8346907496 15.85458851
lfoot  0.5139663815 -27.70302391 34.29029846
ltoes  -8.573555554 -18.13752037 -115.8411603
323
root  35.07199926 36.50824479 -14.8253944 9.248790741 2.261070251 3.162662506
lowerback  -8.043331146 0.367500037 1.808050156
upperback  -3.939960003 0.04458149895 -2.46243
thorax  0.4404999912 -0.1703239977 -3.558809996
lowerneck  -16.8484993 2.147500038 2.062599897
upperneck  16.14459991 1.546270013 3.466259956
head  7.755569935 1.136019945 0.9774960279
lclavicle  0 -4.497500157e-015 -2.743230041e-014
lhumerus  -43.28329849 24.9946003 71.16079712
lradius  -0.05877794698 -6.507048965e-006 28.26570129
lwrist  4.824992743e-007 -3.790274832e-007 -29.20070076
lhand  -0 -36.66989899 -10.61670017
lfingers  90 7.125020027 -90
lthumb  94.69613868 -25.46168404 100.8177315
rclavicle  0 -4.497500157e-015 -2.743230041e-014
rhumerus  -48.6495018 -27.54070091 -63.02249908
rradius  -5.16745672e-007 2.214343908e-008 53.01890182
rwrist  1.129822067e-006 0.001802438172 -157.8849945
rhand  -1.775211159e-031 5.976439953 -6.850729942
rfingers  -90 -7.125020027 -90
rthumb  -84.3371337 -9.21793115 -58.24221566
rfemur  -12.20029449 14.36174107 13.76866341
rtibia  -1.130538821 1.045405984 21.20724297
rfoot  -0.7323096991 -18.29153633 -40.34542847
rtoes  3.979890484 19.61592256 -101.7083841
lfemur  -10.0721817 -18.97347832 -18.68761635
ltibia  1.732623696 0.8227555752 15.88749981
lfoot  0.5029700398 -27.69564247 34.26990891
ltoes  -8.565133015 -18.14139439 -115.814107
324
root  35.06938304 36.50688412 -14.82977079 9.225662231 2.213708401 3.165772438
lowerback  -8.072520256 0.3760969639 1.820490122
upperback  -3.955379963 0.05241810158 -2.461369991
thorax  0.4412609935 -0.1677470058 -3.564219952
lowerneck  -16.88820076 2.153490067 2.055540085
upperneck  16.19330025 1.550029993 3.476910114
head  7.778490067 1.139000058 0.9836519361
lclavicle  0 -4.497500157e-015 -2.743230041e-014
lhumerus  -43.24869919 24.96080017 71.18740082
lradius  -0.05434853584 -6.507048965e-006 28.25409889
lwrist  4.824992743e-007 -3.790274832e-007 -29.22960091
lhand  -4.402590858e-031 -36.67309952 -10.61380005
lfingers  90 7.125020027 -90
lthumb  94.69699428 -25.45868575 100.8208257
rclavicle  0 -4.497500157e-015 -2.743230041e-014
rhumerus  -48.8003006 -28.21019936 -62.33319855
rradius  -5.16745672e-007 2.214343908e-008 51.17219925
rwrist  1.129822067e-006 0.001802438172 -157.098999
rhand  -1.775478597e-031 6.058320045 -6.753769875
rfingers  -90 -7.125020027 -90
rthumb  -84.26462037 -9.305458452 -58.15394139
rfemur  -12.18796539 14.36981297 13.7742033
rtibia  -1.134796739 1.036954522 21.21533775
rfoot  -0.7235445976 -18.31236267 -40.30366516
rtoes  3.992120078 19.61353132 -101.7448149
lfemur  -10.04402256 -18.90614128 -18.70169258
ltibia  1.729155183 0.8189085722 15.87474346
lfoot  0.4837285876 -27.68955803 34.23472977
ltoes  -8.579709697 -18.13468671 -115.8609311
325
root  35.06499163 36.50853615 -14.8387939 9.245409966 2.116762638 3.128068447
lowerback  -8.095060349 0.392610997 1.811519623
upperback  -3.949779987 0.07446929812 -2.472650051
thorax  0.4611369967 -0.1566080004 -3.569180012
lowerneck  -16.8696003 2.14538002 2.066590071
upperneck  16.15439987 1.548730016 3.433599949
head  7.762710094 1.134899974 0.9667630792
lclavicle  0 -4.497500157e-015 -2.743230041e-014
lhumerus  -43.21730042 24.88229942 71.24440002
lradius  -0.04988939315 -6.507048965e-006 28.2507019
lwrist  4.824992743e-007 -3.790274832e-007 -29.16659927
lhand  -4.407447509e-031 -36.75780106 -10.6008997
lfingers  90 7.125020027 -90
lthumb  94.73388122 -25.44312943 100.9102259
rclavicle  0 -4.497500157e-015 -2.743230041e-014
rhumerus  -48.96419907 -28.91559982 -61.60589981
rradius  -5.16745672e-007 2.214343908e-008 49.40269852
rwrist  1.129822067e-006 0.001802438172 -155.7160034
rhand  -1.77423454e-031 5.667210102 -6.921160221
rfingers  -90 -7.125020027 -90
rthumb  -84.45199075 -9.138467838 -58.5500707
rfemur  -12.23836136 14.41142178 13.79990101
rtibia  -1.130534649 1.029062986 21.1982708
rfoot  -0.6973595619 -18.32912827 -40.25385284
rtoes  4.00608947 19.61079051 -101.7864337
lfemur  -10.18617725 -18.87778091 -18.58997726
ltibia  1.628224492 0.8019512892 16.04272652
lfoot  0.5000680089 -27.71581078 34.28305817
ltoes  -8.567433033 -18.14033695 -115.8214941
